<svg width="24" height="24" viewBox="0 0 24 24" fill="none" xmlns="http://www.w3.org/2000/svg">
  <g fill="#000">
    <path d="M21.5871 9.49015C21.3601 9.49015 21.1755 9.30554 21.1755 9.07861C21.1755 5.62984 18.3688 2.82427 14.9212 2.82427C14.6943 2.82427 14.5096 2.63966 14.5096 2.41272C14.5096 2.18578 14.6943 2 14.9212 2C18.8238 2 21.9986 5.17479 21.9986 9.07861C21.9986 9.30554 21.8152 9.49015 21.5871 9.49015Z"/>
    <path d="M19.0872 9.49015C18.8603 9.49015 18.6757 9.30554 18.6757 9.07861C18.6757 7.00794 16.9907 5.32412 14.9212 5.32412C14.6943 5.32412 14.5096 5.13951 14.5096 4.91258C14.5096 4.68564 14.6931 4.50103 14.9212 4.50103C17.4446 4.50103 19.4988 6.55523 19.4988 9.07978C19.4988 9.30554 19.3153 9.49015 19.0872 9.49015Z"/>
    <path d="M16.6356 9.49015C16.4086 9.49015 16.224 9.30554 16.224 9.07861C16.224 8.36016 15.6396 7.77459 14.9212 7.77459C14.6943 7.77459 14.5096 7.58998 14.5096 7.36304C14.5096 7.1361 14.6931 6.9515 14.9212 6.9515C16.0935 6.9515 17.0471 7.90628 17.0471 9.07861C17.0471 9.30554 16.8637 9.49015 16.6356 9.49015Z"/>
    <path d="M10.9633 22L10.0414 21.9859C3.67068 21.8413 2.1703 20.3421 2.01626 13.9643L2.00098 13.0506L2.01509 12.1123C2.15972 5.74037 3.65892 4.24117 10.0367 4.08595L10.9492 4.07184L12.4707 4.10947C12.7 4.11888 12.8764 4.31054 12.867 4.53748C12.8576 4.76559 12.6542 4.95726 12.439 4.93256L10.9504 4.89494L10.0532 4.91022C4.11985 5.05368 2.9734 6.20013 2.83818 12.1276L2.82407 13.0342L2.83818 13.9466C2.98163 19.8811 4.12809 21.0276 10.0555 21.164L10.9621 21.1781L11.8593 21.164C17.7844 21.0287 18.9308 19.8811 19.0755 13.9431L19.0896 13.0377L19.0543 11.562C19.0461 11.3351 19.2236 11.1446 19.4506 11.1363C19.6622 11.1093 19.868 11.3057 19.8762 11.5326L19.9115 13.0224L19.8974 13.9595C19.7422 20.3421 18.243 21.8413 11.8746 21.9859L10.9633 22Z"/>
    <path d="M10.9633 20.3385L10.2178 20.3268C5.0817 20.2104 3.79767 18.9275 3.67303 13.7855L3.66127 13.0494L3.67303 12.2898C3.78944 7.15374 5.07347 5.86972 10.2143 5.74508L10.9504 5.73332L11.6958 5.74508C11.9686 5.75213 12.2262 5.76154 12.4731 5.77447C12.7 5.78623 12.874 5.98025 12.8623 6.20718C12.8505 6.43412 12.6518 6.59169 12.4296 6.59757C12.1909 6.58346 11.9404 6.57522 11.6794 6.56935L10.9504 6.55759L10.2307 6.56935C5.51559 6.6834 4.60313 7.59469 4.4973 12.3063L4.48554 13.0365L4.4973 13.7702C4.61136 18.4877 5.52264 19.3978 10.2343 19.506L10.9645 19.5178L11.6841 19.506C16.3922 19.399 17.3046 18.4877 17.4187 13.7667L17.4305 13.0377L17.4187 12.304C17.4128 12.0488 17.4022 11.8054 17.3917 11.5679C17.3811 11.3409 17.5563 11.1481 17.7832 11.1375C18.0572 11.1163 18.203 11.3033 18.2136 11.5291C18.2253 11.7736 18.2359 12.0229 18.2406 12.2887L18.2524 13.0236L18.2406 13.7832C18.116 18.9275 16.8319 20.2115 11.6994 20.3268L10.9633 20.3385Z"/>
  </g>
</svg>
