<?xml version="1.0" encoding="UTF-8"?>
<svg width="24" height="24" fill="none" version="1.1" viewBox="0 0 24 24" xmlns="http://www.w3.org/2000/svg">
  <style type="text/css">
    #button {
    animation: press 4s infinite;
    }

    @keyframes press {
    0%, 10%, 30%, 50%, 70%, 100% {
    fill: #000;
    }
    20%, 40%, 60% {
    fill: #0078CC;
    }
    }
  </style>
 <g fill="#000">
  <g transform="matrix(1.2075 0 0 1.2075 -1.2302 -3.7415)">
   <path d="m10.948 4.0711-0.91211 0.015625c-0.20785 0.00506-0.39614 0.015402-0.59375 0.023437-5.6683 0.2305-7.1831 1.745-7.4043 7.4082-3.407e-4 0.0047-0.00178 0.0089-0.00195 0.01367l-0.00195 0.08789c-0.00595 0.1651-0.015624 0.32005-0.019531 0.49219l-0.011719 0.86328-0.00195 0.04687v0.0293l0.00195 0.16797 0.011719 0.74023c0.00894 0.36749 0.024449 0.715 0.042969 1.0508 0.00158 0.02871 0.00225 0.06136 0.00391 0.08984 7.16e-5 0.0012-7.19e-5 0.0027 0 0.0039 0.021027 0.36012 0.048017 0.70252 0.082031 1.0273 6.43e-5 6.15e-4 -6.43e-5 0.0013 0 2e-3 0.017016 0.16233 0.03606 0.31882 0.056641 0.47266 0.00623 0.04668 0.012957 0.09081 0.019531 0.13672 0.028992 0.20207 0.061747 0.39652 0.097656 0.58398 0.00991 0.05171 0.018841 0.10562 0.029297 0.15625 2.525e-4 0.0012-2.529e-4 0.0027 0 0.0039 0.028271 0.13662 0.059364 0.26959 0.091797 0.39844 1.516e-4 6.03e-4 -1.517e-4 0.0014 0 2e-3 0.032599 0.12938 0.068458 0.2552 0.10547 0.37695 0.012425 0.04088 0.026124 0.0791 0.039063 0.11914 0.025755 0.07967 0.050289 0.15995 0.078125 0.23633 2.759e-4 7.58e-4 0.00168 0.0012 0.00195 2e-3 0.041596 0.11398 0.084447 0.22522 0.13086 0.33203 3.297e-4 7.59e-4 0.00162 0.0012 0.00195 2e-3 0.18677 0.42926 0.41234 0.80118 0.68555 1.123 5.862e-4 6.91e-4 0.00137 0.0013 0.00195 2e-3 0.067884 0.07986 0.13915 0.1567 0.21289 0.23047 0.0062 0.0062 0.013292 0.01142 0.019531 0.01758 0.068678 0.06778 0.13901 0.13451 0.21289 0.19726 3.681e-4 3.13e-4 0.00158-3.12e-4 0.00195 0 0.1608 0.13648 0.33286 0.263 0.51953 0.37696 4.681e-4 2.85e-4 0.00148-2.86e-4 0.00195 0 0.093116 0.05679 0.18919 0.1106 0.28906 0.16211 5.141e-4 2.65e-4 0.00144-2.65e-4 0.00195 0 0.099905 0.05148 0.20368 0.10202 0.31055 0.14844 5.478e-4 2.38e-4 0.00141-2.37e-4 0.00195 0 0.10691 0.04639 0.21599 0.09128 0.33008 0.13281 5.815e-4 2.12e-4 0.00137-2.12e-4 0.00195 0 0.11414 0.04151 0.23199 0.08032 0.35352 0.11719 6.053e-4 1.84e-4 0.00135-1.83e-4 0.00195 0 0.12159 0.03685 0.24776 0.07305 0.37695 0.10547 6.211e-4 1.56e-4 0.00133-1.56e-4 0.00195 0 0.12925 0.0324 0.26136 0.06166 0.39844 0.08984 6.397e-4 1.31e-4 0.00131-1.32e-4 0.00195 0 0.13714 0.02817 0.27865 0.05592 0.42383 0.08008 6.461e-4 1.09e-4 0.00131-1.08e-4 0.00195 0 0.14524 0.02415 0.29377 0.04605 0.44727 0.06641 6.56e-4 8.7e-5 0.0013-8.7e-5 0.00195 0 0.15356 0.02034 0.31062 0.03988 0.47266 0.05664 0.00131 1.36e-4 0.00259-1.36e-4 0.00391 0 0.32429 0.03347 0.66591 0.05967 1.0254 0.08008 0.00136 7.7e-5 0.00254-7.7e-5 0.00391 0 0.35973 0.02037 0.7381 0.03396 1.1348 0.04297 0.0014 3.1e-5 0.0025-3.1e-5 0.0039 0l0.92188 0.01563 0.90625-0.01563c3.1705-0.07196 5.1338-0.47892 6.3262-1.6562 0.0056-0.0055 0.01205-0.0101 0.01758-0.01563l2e-3 -2e-3c0.07374-0.07377 0.14501-0.15061 0.21289-0.23047 5.87e-4 -6.91e-4 0.0014-0.0013 2e-3 -2e-3 0.06843-0.08062 0.13263-0.16297 0.19531-0.25 0.18856-0.26157 0.35171-0.55157 0.49219-0.875 0.04641-0.10681 0.08926-0.21805 0.13086-0.33203 2.76e-4 -7.57e-4 0.0017-0.0012 2e-3 -2e-3 0.04165-0.11428 0.08016-0.23182 0.11719-0.35352 1.78e-4 -5.85e-4 -1.77e-4 -0.0014 0-2e-3 0.03701-0.12175 0.07287-0.24757 0.10547-0.37695 1.52e-4 -6.03e-4 -1.51e-4 -0.0014 0-2e-3 0.03243-0.12884 0.06353-0.26182 0.0918-0.39844 2.53e-4 -0.0012-2.53e-4 -0.0027 0-0.0039 0.01046-0.05063 0.01939-0.10454 0.0293-0.15625 0.03591-0.18747 0.06866-0.38192 0.09766-0.58398 0.0064-0.04472 0.01344-0.08737 0.01953-0.13281 1.67e-4 -0.0012-1.66e-4 -0.0027 0-0.0039 0.02058-0.15383 0.03963-0.31033 0.05664-0.47266 6.4e-5 -6.14e-4 -6.4e-5 -0.0013 0-2e-3 0.03401-0.32483 0.061-0.66722 0.08203-1.0273 7.2e-5 -0.0012-7.1e-5 -0.0027 0-0.0039 0.0017-0.02849 0.0023-0.06113 0.0039-0.08984 0.01852-0.33578 0.03403-0.68329 0.04297-1.0508l0.01172-0.74023 2e-3 -0.16797v-0.0293l-2e-3 -0.04687-0.01172-0.86328c-0.0039-0.17214-0.01358-0.32709-0.01953-0.49219l-2e-3 -0.08789c-1.71e-4 -0.0047-0.0016-9e-3 -2e-3 -0.01367-0.22124-5.6632-1.736-7.1777-7.4043-7.4082-0.19761-0.00804-0.3859-0.018379-0.59375-0.023437l-0.91211-0.015625zm2e-3 0.82422h0.01172l1.4766 0.037109c6.46e-4 2.49e-5 0.0013-2.5e-5 2e-3 0 5.2282 0.20214 6.4201 1.3984 6.6133 6.6289 3.83e-4 0.01036-3.75e-4 0.02086 0 0.03125l0.03516 1.4414v4e-3l-0.01563 0.9082c-0.01661 0.68698-0.04831 1.3046-0.09766 1.8691-0.0097 0.1102-0.02007 0.21646-0.03125 0.32227-0.05178 0.49146-0.11921 0.94191-0.20898 1.3438-0.17788 0.79528-0.43893 1.4228-0.81641 1.918-0.08897 0.11674-0.18276 0.22768-0.28516 0.33008-0.65342 0.65343-1.5883 1.0241-2.9219 1.2266-0.53288 0.08092-1.1296 0.13524-1.7969 0.16992-0.33464 0.01739-0.68737 0.03052-1.0586 0.03906l-0.89453 0.01367-0.90625-0.01367c-6.83e-4 -1.5e-5 -0.0013 1.6e-5 -2e-3 0-0.36963-0.0084-0.72133-0.02182-1.0547-0.03906-6.837e-4 -3.6e-5 -0.00127 3.5e-5 -0.00195 0-0.66724-0.03468-1.264-0.08901-1.7969-0.16992-0.5325-0.08085-1.003-0.18825-1.416-0.33008-5.879e-4 -2.02e-4 -0.00137 2.02e-4 -0.00195 0-0.61962-0.21309-1.1121-0.50482-1.504-0.89658-0.10239-0.1024-0.19619-0.21333-0.28516-0.33008-0.024903-0.032678-0.050323-0.063809-0.074219-0.097656-0.21771-0.30826-0.39476-0.66476-0.53711-1.0781-1.963e-4 -5.7e-4 1.961e-4 -0.0014 0-2e-3 -0.071036-0.20651-0.13446-0.42664-0.18945-0.66211-1.411e-4 -6.05e-4 1.41e-4 -0.0013 0-2e-3 -0.00574-0.02458-0.010053-0.05126-0.015625-0.07617-0.089776-0.40184-0.1572-0.85229-0.20898-1.3438-0.00671-0.06373-0.015325-0.12023-0.021484-0.18555-0.00408-0.04311-0.00592-0.09291-0.00977-0.13672-0.049349-0.56452-0.08105-1.1822-0.097656-1.8691l-0.015625-0.9082v-4e-3l0.035156-1.4414v-0.03125c0.19316-5.2304 1.3851-6.4266 6.6133-6.6287 6.459e-4 -2.5e-5 0.00131 2.49e-5 0.00195 0z"/>
   <path d="m10.952 6.9548-0.6132 0.00976c-8e-3 1.931e-4 -0.01483 0.00142-0.02277 0.00162-0.2177 0.0058-0.4251 0.01241-0.62296 0.022772-0.00447 2.317e-4 -0.0086 0.00123-0.013012 0.00162-3.5119 0.19068-4.5723 1.2468-4.7608 4.7462-0.00221 0.01481-0.00579 0.03023-0.0065 0.04555-0.00974 0.20361-0.018857 0.40974-0.022772 0.63109l-0.00976 0.6132 0.00976 0.63272c0.00622 0.25695 0.01725 0.50088 0.030903 0.73518 5.742e-4 0.0099 0.00104 0.0211 0.00162 0.0309 3.08e-5 5.15e-4 -3.09e-5 0.0011 0 0.0017 0.014562 0.24256 0.033224 0.47207 0.056928 0.69127 0.00132 0.01224 0.00353 0.02361 0.00488 0.03579 0.059405 0.53394 0.14737 1.0017 0.27325 1.407 0.051504 0.16582 0.10953 0.32064 0.17403 0.46682 0.064514 0.14617 0.13446 0.28226 0.21307 0.40988 3.819e-4 6.2e-4 0.00124 1e-3 0.00162 0.0017 0.11785 0.19101 0.25244 0.3615 0.40501 0.51398 0.10159 0.10153 0.21185 0.19559 0.33018 0.28139 3.47e-4 2.52e-4 0.00128-2.52e-4 0.00162 0 0.058996 0.04274 0.11881 0.08458 0.18217 0.12362 3.884e-4 2.39e-4 0.00124-2.38e-4 0.00162 0 0.063377 0.03901 0.12894 0.07679 0.19681 0.11223 4.241e-4 2.21e-4 0.0012-2.21e-4 0.00162 0 0.0679 0.03542 0.13729 0.07048 0.20982 0.10247 4.547e-4 2e-4 0.00117-2e-4 0.00162 0 0.072562 0.03197 0.14714 0.06241 0.22446 0.09109 4.817e-4 1.79e-4 0.00114-1.79e-4 0.00162 0 0.077366 0.02866 0.15683 0.05583 0.2391 0.08133 5.021e-4 1.56e-4 0.00113-1.56e-4 0.00163 0 0.082315 0.02548 0.16801 0.05074 0.25536 0.07319 5.146e-4 1.32e-4 0.00112-1.32e-4 0.00163 0 0.087392 0.02244 0.17581 0.04388 0.26838 0.06343 0.00106 2.24e-4 0.0022-2.23e-4 0.00326 0 0.1853 0.03904 0.38197 0.07257 0.5888 0.10084 5.46e-4 7.5e-5 0.00108-7.5e-5 0.00163 0 0.10349 0.01414 0.20972 0.0274 0.3188 0.03904 0.00109 1.16e-4 0.00217-1.18e-4 0.00326 0 0.43769 0.04659 0.92105 0.07423 1.4541 0.08621 0.0012 2.6e-5 0.0021-2.6e-5 0.0032 0l0.62133 0.0098 0.60832-0.0098c0.0012-2.6e-5 0.0021 2.6e-5 0.0032 0 0.53304-0.01197 1.0164-0.03961 1.4541-0.08621 0.11028-0.01177 0.21911-0.02473 0.32368-0.03904 0.20683-0.02827 0.4035-0.0618 0.5888-0.10084 0.65266-0.13776 1.1751-0.34592 1.5908-0.64735 0.11834-0.08581 0.2286-0.17986 0.33018-0.28139 0.15256-0.15248 0.28715-0.32298 0.405-0.51398 3.83e-4 -6.2e-4 0.0013-1e-3 0.0017-0.0017 0.07862-0.12762 0.14856-0.26371 0.21307-0.40988 0.06452-0.14617 0.12254-0.301 0.17403-0.46682 0.12589-0.40531 0.21385-0.873 0.27325-1.407 0.0013-0.01162 0.0036-0.02247 0.0049-0.03416 5.6e-5 -5.11e-4 -5.4e-5 -0.0011 0-0.0017 0.0237-0.2192 0.04236-0.44871 0.05693-0.69127 3.1e-5 -5.15e-4 -3.1e-5 -0.0011 0-0.0017 5.88e-4 -0.0098 0.0011-0.02105 0.0017-0.0309 0.01365-0.2343 0.02468-0.47824 0.0309-0.73518l0.0098-0.63272-0.0098-0.6132c-0.0039-0.22135-0.01303-0.42747-0.02277-0.63109-7.2e-4 -0.01532-0.0043-0.03074-0.0065-0.04555-0.18856-3.4993-1.2489-4.5556-4.7608-4.7462-0.0044-3.997e-4 -0.0086-0.0014-0.01302-0.00162-0.19785-0.010361-0.40526-0.016978-0.62296-0.022772-8e-3 -2.121e-4 -0.01477-0.00141-0.02277-0.00162h-0.0017zm0 0.68639 0.6067 0.00976h0.0017c0.21675 0.00488 0.42469 0.012679 0.62296 0.024398 0.0028-7.34e-5 0.0054-0.0015 0.0081-0.00162 3.3769 0.16761 4.0612 1.0514 4.1444 4.7543l0.0098 0.60832-0.0098 0.61157c-0.03856 1.5946-0.18538 2.6676-0.60994 3.3848-3.69e-4 6.21e-4 -0.0013 1e-3 -0.0017 0.0017-0.35953 0.60616-0.91772 0.95844-1.7746 1.1581-0.0011 2.44e-4 -0.0021-2.43e-4 -0.0032 0-0.15515 0.03606-0.31912 0.06767-0.49446 0.09434-0.53036 0.08068-1.1561 0.12133-1.8932 0.13826l-0.5953 0.0098-0.60832-0.0098c-0.0017-3.8e-5 -0.0031 4e-5 -0.0049 0-0.24391-0.0055-0.47448-0.0147-0.69452-0.02603-0.00114-5.9e-5 -0.00211 5.9e-5 -0.00326 0-0.21926-0.01133-0.42785-0.02564-0.62458-0.04391-0.00169-1.57e-4 -0.00319 1.59e-4 -0.00488 0-0.19697-0.01837-0.38234-0.04175-0.5579-0.06831-0.00108-1.66e-4 -0.00217 1.65e-4 -0.00326 0-0.17534-0.02667-0.33932-0.05829-0.49446-0.09434-0.00105-2.44e-4 -0.00221 2.45e-4 -0.00326 0-0.85676-0.19966-1.415-0.55193-1.7746-1.1581-3.683e-4 -6.19e-4 -0.00126-1e-3 -0.00162-0.0017-0.42453-0.71724-0.57136-1.7901-0.60991-3.3848l-0.00976-0.61158 0.00976-0.60832c0.083175-3.703 0.7675-4.5867 4.1444-4.7543 0.00277 1.304e-4 0.00535 0.00155 0.00813 0.00163 0.19827-0.01172 0.40621-0.019512 0.62296-0.024398z" stroke-width=".83278"/>
  </g>
  <path d="m6.7793 12.939c2.8425 1.9909 2.8663 2.0315 6.373 4.2852 2.4764-0.32042 4.1722-2.7151 4.1738-5.2246 1.63e-4 -2.9573-2.3843-5.3549-5.3262-5.3555-2.9418 5.358e-4 -5.3263 2.3982-5.3262 5.3555 0.00754 0.31566-0.037707 0.6581 0.10547 0.93945z" fill="none" stroke="#000" stroke-width=".32733"/>
  <ellipse id="button" cx="16.474" cy="16.671" rx=".61395" ry=".64806" fill="#000"/>
 </g>
</svg>
