<svg width="24" height="24" viewBox="0 0 24 24" fill="none" xmlns="http://www.w3.org/2000/svg">
  <g fill="#000">
    <path d="M14.9222 2C14.6952 2 14.5106 2.18461 14.5106 2.41155C14.5106 2.63848 14.694 2.82309 14.9222 2.82309C18.3711 2.82309 21.1769 5.62866 21.1769 9.07742C21.1769 9.30436 21.3603 9.48897 21.5884 9.48897C21.8166 9.48897 22 9.30436 22 9.07742C22 5.17479 18.8262 2 14.9222 2Z"/>
    <path d="M14.9222 5.32294C16.9929 5.32294 18.6769 7.00793 18.6769 9.07742C18.6769 9.30436 18.8603 9.48897 19.0884 9.48897C19.3166 9.48897 19.5 9.30436 19.5 9.07742C19.5 6.55288 17.4469 4.49867 14.9222 4.49867C14.6952 4.49867 14.5106 4.68328 14.5106 4.91022C14.5106 5.13716 14.6952 5.32294 14.9222 5.32294Z"/>
    <path d="M14.9222 7.77458C15.6406 7.77458 16.2251 8.36015 16.2251 9.07859C16.2251 9.30553 16.4085 9.49014 16.6366 9.49014C16.8648 9.49014 17.0482 9.30553 17.0482 9.07859C17.0482 7.9051 16.0945 6.95149 14.9222 6.95149C14.6952 6.95149 14.5106 7.1361 14.5106 7.36303C14.5106 7.58997 14.6952 7.77458 14.9222 7.77458Z"/>
    <path d="M20.4113 11.1352C20.1844 11.1352 19.9998 11.3198 19.9998 11.5467V21.1757H11.8236V3.99779H12.4539C12.6809 3.99779 12.8655 3.81318 12.8655 3.58624C12.8655 3.35931 12.6809 3.1747 12.4539 3.1747L2.41157 3.17587C2.18344 3.17587 2 3.35931 2 3.58742V21.5885C2 21.8154 2.18462 22 2.41157 22H20.4125C20.6395 22 20.8241 21.8166 20.8241 21.5885V11.5467C20.8229 11.3198 20.6395 11.1352 20.4113 11.1352ZM2.82314 3.99897H11.0005V21.1769H2.82314V3.99897Z"/>
    <path d="M6.91064 18.3749C6.65076 18.3749 6.44145 18.5853 6.44145 18.844C6.44145 19.1027 6.65076 19.3132 6.91064 19.3132C7.16934 19.3132 7.37983 19.1027 7.37983 18.844C7.37983 18.5853 7.16934 18.3749 6.91064 18.3749Z"/>
    <path d="M15.9111 18.3749C15.6512 18.3749 15.4419 18.5853 15.4419 18.844C15.4419 19.1027 15.6512 19.3132 15.9111 19.3132C16.1698 19.3132 16.3803 19.1027 16.3803 18.844C16.3803 18.5853 16.1698 18.3749 15.9111 18.3749Z"/>
  </g>
</svg>
