<?xml version="1.0" encoding="UTF-8"?>
<svg width="24" height="24" fill="none" version="1.1" viewBox="0 0 24 24" xmlns="http://www.w3.org/2000/svg">
  <style type="text/css">
    .press {
    animation: press 10s infinite;
    }

    @keyframes press {
    0%, 5%, 15%, 25%, 35%, 100% {
    opacity: 0;
    }
    10%, 20%, 30% {
    opacity: 0.75;
    }
    }

    .led {
    animation: blink 10s infinite;
    }

    @keyframes blink {
    0%, 40%, 50%, 60%, 70%, 80%, 90%, 100% {
    fill: #000;
    }
    45%, 55%, 65%, 75%, 85% {
    fill: #0078CC;
    }
    }
  </style>
 <g fill="#000">
  <path d="m14.922 2c-0.227 0-0.4116 0.18461-0.4116 0.41155 0 0.22693 0.1834 0.41154 0.4116 0.41154 3.4489 0 6.2547 2.8056 6.2547 6.2543 0 0.22694 0.1834 0.41155 0.4115 0.41155 0.2282 0 0.4116-0.18461 0.4116-0.41155 0-3.9026-3.1738-7.0774-7.0778-7.0774z"/>
  <path d="m14.922 5.3229c2.0707 0 3.7547 1.685 3.7547 3.7545 0 0.22694 0.1834 0.41155 0.4115 0.41155 0.2282 0 0.4116-0.18461 0.4116-0.41155 0-2.5245-2.0531-4.5788-4.5778-4.5788-0.227 0-0.4116 0.18461-0.4116 0.41155s0.1846 0.41272 0.4116 0.41272z"/>
  <path d="m14.922 7.7746c0.7184 0 1.3029 0.58557 1.3029 1.304 0 0.22694 0.1834 0.41155 0.4115 0.41155 0.2282 0 0.4116-0.18461 0.4116-0.41155 0-1.1735-0.9537-2.1271-2.126-2.1271-0.227 0-0.4116 0.18461-0.4116 0.41154 0 0.22694 0.1846 0.41155 0.4116 0.41155z"/>
  <path d="m20.411 11.135c-0.2269 0-0.4115 0.1846-0.4115 0.4115v9.629h-8.1762v-17.178h0.6303c0.227 0 0.4116-0.18461 0.4116-0.41155 0-0.22693-0.1846-0.41154-0.4116-0.41154l-10.042 0.00117c-0.22813 0-0.41157 0.18344-0.41157 0.41155v18.001c0 0.2269 0.18462 0.4115 0.41157 0.4115h18.001c0.227 0 0.4116-0.1834 0.4116-0.4115v-10.042c-0.0012-0.2269-0.1846-0.4115-0.4128-0.4115zm-17.588-7.1362h8.1774v17.178h-8.1774v-17.178z"/>
  <path class="press" d="m6.9106 17.344c-0.83084 0-1.5 0.67271-1.5 1.4998s0.66916 1.5002 1.5 1.5002c0.82706 0 1.5-0.67303 1.5-1.5002s-0.67294-1.4998-1.5-1.4998z" opacity="0" fill="#0078CC"/>
  <path class="led" d="m6.9106 18.375c-0.25988 0-0.46919 0.2104-0.46919 0.4691s0.20931 0.4692 0.46919 0.4692c0.2587 0 0.46919-0.2105 0.46919-0.4692s-0.21049-0.4691-0.46919-0.4691z"/>
  <path class="led" d="m15.911 18.375c-0.2599 0-0.4692 0.2104-0.4692 0.4691s0.2093 0.4692 0.4692 0.4692c0.2587 0 0.4692-0.2105 0.4692-0.4692s-0.2105-0.4691-0.4692-0.4691z"/>
 </g>
</svg>
