<svg width="24" height="24" viewBox="0 0 24 24" fill="none" xmlns="http://www.w3.org/2000/svg">
  <g fill="#000">
    <path d="M14.9222 2C14.6952 2 14.5106 2.18461 14.5106 2.41155C14.5106 2.63849 14.694 2.82309 14.9222 2.82309C18.3711 2.82309 21.1769 5.62867 21.1769 9.07743C21.1769 9.30437 21.3603 9.48898 21.5884 9.48898C21.8166 9.48898 22 9.30437 22 9.07743C22 5.17479 18.8262 2 14.9222 2Z"/>
    <path d="M14.9222 5.32295C16.9929 5.32295 18.6769 7.00794 18.6769 9.07743C18.6769 9.30437 18.8603 9.48898 19.0884 9.48898C19.3166 9.48898 19.5 9.30437 19.5 9.07743C19.5 6.55288 17.4469 4.49868 14.9222 4.49868C14.6952 4.49868 14.5106 4.68328 14.5106 4.91022C14.5106 5.13716 14.6952 5.32295 14.9222 5.32295Z"/>
    <path d="M14.9222 7.77459C15.6406 7.77459 16.2251 8.36016 16.2251 9.0786C16.2251 9.30554 16.4085 9.49015 16.6366 9.49015C16.8648 9.49015 17.0482 9.30554 17.0482 9.0786C17.0482 7.90511 16.0945 6.95149 14.9222 6.95149C14.6952 6.95149 14.5106 7.1361 14.5106 7.36304C14.5106 7.58998 14.6952 7.77459 14.9222 7.77459Z"/>
    <path d="M20.4113 11.1352C20.1844 11.1352 19.9998 11.3198 19.9998 11.5467V21.1757H2.82314V3.99894H12.4527C12.6797 3.99894 12.8643 3.81433 12.8643 3.58739C12.8643 3.36046 12.6797 3.17585 12.4527 3.17585H2.41157C2.18344 3.17585 2 3.35928 2 3.58739V21.5885C2 21.8154 2.18462 22 2.41157 22H20.4125C20.6395 22 20.8241 21.8166 20.8241 21.5885V11.5467C20.8229 11.3198 20.6395 11.1352 20.4113 11.1352Z"/>
  </g>
</svg>
