<svg width="24" height="24" viewBox="0 0 24 24" fill="none" xmlns="http://www.w3.org/2000/svg">
  <g fill="#000">
    <path d="M10.9417 18.8452C10.9417 19.1039 11.151 19.3144 11.4109 19.3144C11.6696 19.3144 11.8801 19.1039 11.8801 18.8452C11.8801 18.5865 11.6696 18.376 11.4109 18.376C11.151 18.3749 10.9417 18.5853 10.9417 18.8452Z"/>
    <path d="M14.9221 2C14.6952 2 14.5106 2.18461 14.5106 2.41155C14.5106 2.63849 14.694 2.82309 14.9221 2.82309C18.3711 2.82309 21.1769 5.62867 21.1769 9.07743C21.1769 9.30437 21.3603 9.48898 21.5884 9.48898C21.8166 9.48898 22 9.30437 22 9.07743C22 5.17479 18.8262 2 14.9221 2Z"/>
    <path d="M14.9221 5.32295C16.9929 5.32295 18.6769 7.00794 18.6769 9.07743C18.6769 9.30437 18.8603 9.48898 19.0884 9.48898C19.3166 9.48898 19.5 9.30437 19.5 9.07743C19.5 6.55288 17.4468 4.49868 14.9221 4.49868C14.6952 4.49868 14.5106 4.68328 14.5106 4.91022C14.5106 5.13716 14.6952 5.32295 14.9221 5.32295Z"/>
    <path d="M14.9221 7.77459C15.6406 7.77459 16.2251 8.36016 16.2251 9.0786C16.2251 9.30554 16.4085 9.49015 16.6366 9.49015C16.8648 9.49015 17.0482 9.30554 17.0482 9.0786C17.0482 7.90511 16.0945 6.95149 14.9221 6.95149C14.6952 6.95149 14.5106 7.1361 14.5106 7.36304C14.5106 7.58998 14.6952 7.77459 14.9221 7.77459Z"/>
    <path d="M20.4114 11.1352C20.1844 11.1352 19.9998 11.3198 19.9998 11.5467V21.1757H2.82314V3.99894H12.4527C12.6797 3.99894 12.8643 3.81433 12.8643 3.58739C12.8643 3.36046 12.6797 3.17585 12.4527 3.17585H2.41157C2.18344 3.17585 2 3.35928 2 3.58739V21.5885C2 21.8154 2.18462 22 2.41157 22H20.4125C20.6395 22 20.8241 21.8166 20.8241 21.5885V11.5467C20.8229 11.3198 20.6395 11.1352 20.4114 11.1352Z"/>
    <path d="M11.2016 9.06567L8.70862 10.5084C8.51224 10.6213 8.44521 10.873 8.55928 11.0693C8.63571 11.2022 8.77329 11.2751 8.91558 11.2751C8.98496 11.2751 9.05669 11.2575 9.12137 11.2198L11.4097 9.89582L13.7122 11.194C13.9097 11.3057 14.1602 11.2363 14.2731 11.0376C14.3848 10.84 14.3154 10.5884 14.1167 10.4767L11.6096 9.06332C11.4814 8.99042 11.3274 8.99159 11.2016 9.06567Z"/>
    <path d="M14.2695 14.1254C14.1555 13.9255 13.9015 13.8608 13.7074 13.9725L11.4109 15.2836L9.11547 13.9725C8.91556 13.8584 8.66627 13.9278 8.55338 14.1254C8.44049 14.3229 8.50869 14.5745 8.70625 14.6874L11.2051 16.1161C11.2686 16.1525 11.3391 16.1702 11.4097 16.1702C11.4802 16.1702 11.5508 16.1525 11.6143 16.1161L14.1155 14.6874C14.3142 14.5734 14.3812 14.3217 14.2695 14.1254Z"/>
  </g>
</svg>
