<svg width="24" height="24" viewBox="0 0 24 24" fill="none" xmlns="http://www.w3.org/2000/svg">
  <g fill="#000">
    <path d="M7.85607 11.171C7.39864 11.171 7.02822 11.5426 7.02822 12C7.02822 12.4563 7.39864 12.8278 7.85607 12.8278C8.31468 12.8278 8.68391 12.4563 8.68391 12C8.68391 11.5426 8.31468 11.171 7.85607 11.171Z"/>
    <path d="M16.1428 11.171C15.6865 11.171 15.3137 11.5426 15.3137 12C15.3137 12.4563 15.6853 12.8278 16.1428 12.8278C16.599 12.8278 16.9706 12.4563 16.9706 12C16.9706 11.5426 16.6002 11.171 16.1428 11.171Z"/>
    <path d="M12 3.64628C7.39276 3.64628 3.64511 7.39393 3.64511 12C3.64511 16.6061 7.39393 20.3537 12 20.3537C16.6061 20.3537 20.3525 16.6061 20.3525 12C20.3525 7.39393 16.6061 3.64628 12 3.64628ZM12 19.5306C7.84666 19.5306 4.46825 16.1522 4.46825 12C4.46825 7.84784 7.84666 4.46943 12 4.46943C16.151 4.46943 19.5294 7.84784 19.5294 12C19.5294 16.1522 16.151 19.5306 12 19.5306Z"/>
    <path d="M21.5884 2H2.41157C2.18462 2 2 2.18462 2 2.41157V21.5884C2 21.8154 2.18462 22 2.41157 22H21.5884C21.8154 22 22 21.8166 22 21.5884V2.41157C22 2.18462 21.8166 2 21.5884 2ZM19.5306 2.82314V4.3777C19.5306 4.60466 19.346 4.78928 19.1178 4.78928C18.8897 4.78928 18.7051 4.60466 18.7051 4.3777V2.82314H19.5306ZM21.178 21.178H2.82314V2.82314H17.8843V4.3777C17.8843 5.05856 18.4381 5.61242 19.119 5.61242C19.7999 5.61242 20.3537 5.05856 20.3537 4.3777V2.82314H21.178V21.178Z"/>
  </g>
</svg>
