<?xml version="1.0" encoding="UTF-8"?>
<svg width="24" height="24" fill="none" version="1.1" viewBox="0 0 24 24" xmlns="http://www.w3.org/2000/svg">
  <style type="text/css">
    .press {
    animation: press 10s infinite;
    }

    @keyframes press {
    0%, 5%, 15%, 25%, 35%, 100% {
    opacity: 0;
    }
    10%, 20%, 30% {
    opacity: 0.75;
    }
    }

    .led {
    animation: blink 10s infinite;
    }

    @keyframes blink {
    0%, 40%, 50%, 60%, 70%, 80%, 90%, 100% {
    opacity: 0;
    }
    45%, 55%, 65%, 75%, 85% {
    opacity: 1;
    }
    }
  </style>
  <g fill="#000">
    <path d="m7.8561 11.171c-0.45743 0-0.82785 0.3716-0.82785 0.829 0 0.4563 0.37042 0.8278 0.82785 0.8278 0.45861 0 0.82784-0.3715 0.82784-0.8278 0-0.4574-0.36923-0.829-0.82784-0.829z"/>
    <path d="m16.143 11.171c-0.4563 0-0.8291 0.3716-0.8291 0.829 0 0.4563 0.3716 0.8278 0.8291 0.8278 0.4562 0 0.8278-0.3715 0.8278-0.8278 0-0.4574-0.3704-0.829-0.8278-0.829z"/>
    <path d="m12 3.6463c-4.6072 0-8.3549 3.7476-8.3549 8.3537 0 4.6061 3.7488 8.3537 8.3549 8.3537 4.6061 0 8.3525-3.7476 8.3525-8.3537 0-4.6061-3.7464-8.3537-8.3525-8.3537zm0 15.884c-4.1533 0-7.5318-3.3784-7.5318-7.5306 0-4.1522 3.3784-7.5306 7.5318-7.5306 4.151 0 7.5294 3.3784 7.5294 7.5306 0 4.1522-3.3784 7.5306-7.5294 7.5306z"/>
    <path class="led" d="m17.884 2v0.82314l8.6e-5 1.5546c3.8e-5 0.68086 0.5538 1.2347 1.2347 1.2347s1.2347-0.55386 1.2347-1.2347l-4.86e-4 -1.5546v-0.82314" opacity="0" fill="#0078CC"/>
    <path d="m21.588 2h-19.177c-0.22695 0-0.41157 0.18462-0.41157 0.41157v19.177c0 0.227 0.18462 0.4116 0.41157 0.4116h19.177c0.227 0 0.4116-0.1834 0.4116-0.4116v-19.177c0-0.22695-0.1834-0.41157-0.4116-0.41157zm-2.0578 0.82314v1.5546c0 0.22696-0.1846 0.41158-0.4128 0.41158-0.2281 0-0.4127-0.18462-0.4127-0.41158v-1.5546h0.8255zm1.6474 18.355h-18.355v-18.355h15.061v1.5546c0 0.68086 0.5538 1.2347 1.2347 1.2347s1.2347-0.55386 1.2347-1.2347v-1.5546h0.8243v18.355z"/>
    <path class="press" d="m17.884 2v0.82314l8.6e-5 1.5546c3.8e-5 0.68086 0.5538 1.2347 1.2347 1.2347s1.2347-0.55386 1.2347-1.2347l-4.86e-4 -1.5546v-0.82314" opacity="0" fill="#0078CC"/>
  </g>
</svg>
