<svg width="24" height="24" viewBox="0 0 24 24" fill="none" xmlns="http://www.w3.org/2000/svg">
  <g fill="#000">
    <path d="M11.9976 18.1882C12.9124 18.1882 13.6566 17.4439 13.6566 16.5292C13.6566 15.6144 12.9124 14.869 11.9976 14.869C11.0829 14.869 10.3386 15.6144 10.3386 16.5292C10.3386 17.4439 11.0829 18.1882 11.9976 18.1882ZM11.9976 15.7038C12.4527 15.7038 12.8218 16.073 12.8218 16.528C12.8218 16.983 12.4527 17.351 11.9976 17.351C11.5426 17.351 11.1734 16.983 11.1734 16.528C11.1734 16.073 11.5426 15.7038 11.9976 15.7038Z"/>
    <path d="M19.4897 12.4727C19.4121 12.3916 19.3039 12.3469 19.191 12.3469H19.1405L18.4138 10.9266C18.341 10.7867 18.1975 10.6997 18.0423 10.6997H16.8077L16.7748 6.92305C16.7725 6.69377 16.5867 6.50918 16.3574 6.50918H15.512V3.23581C15.512 2.5515 14.9547 1.99536 14.2704 1.99536C13.5861 1.99536 13.0288 2.5515 13.0288 3.23581V6.50918H10.97V3.23581C10.97 2.5515 10.4139 1.99536 9.72955 1.99536C9.04524 1.99536 8.4891 2.5515 8.4891 3.23581V6.50918H7.64372C7.41444 6.50918 7.22749 6.69377 7.22631 6.92305L7.19339 10.6997H5.95882C5.80245 10.6997 5.659 10.7878 5.58728 10.9266L4.86065 12.3457H4.80891C4.69604 12.3457 4.58787 12.3916 4.51027 12.4716C4.43149 12.5527 4.38916 12.662 4.39151 12.7749L4.6055 20.9654C4.60903 21.0841 4.66194 21.1947 4.7513 21.2723L4.98646 21.4698C5.54965 21.8484 7.58258 22.0024 12 22.0036H12.0023C16.4197 22.0024 18.4515 21.8484 19.0558 21.4404L19.251 21.2723C19.3404 21.1958 19.3933 21.0841 19.3956 20.9654L19.6096 12.7749C19.612 12.662 19.5685 12.5527 19.4897 12.4727ZM13.8648 3.23581C13.8648 3.01241 14.0458 2.83016 14.2704 2.83016C14.495 2.83016 14.6749 3.01123 14.6749 3.23581V6.50918H13.8648V3.23581ZM9.3239 3.23581C9.3239 3.01241 9.50615 2.83016 9.72955 2.83016C9.95295 2.83016 10.1352 3.01123 10.1352 3.23581V6.50918H9.3239V3.23581ZM8.05759 7.3428H15.9424L15.9706 10.6985H8.0282L8.05759 7.3428ZM6.21397 11.5345H17.7872L18.2022 12.3457H5.79774L6.21397 11.5345ZM18.5655 20.762L18.5491 20.7761C18.2833 20.9548 16.9312 21.1676 12 21.1676C7.06876 21.1676 5.71661 20.9548 5.48969 20.8055L5.43443 20.7584L5.2369 13.1805H18.7619L18.5655 20.762Z"/>
  </g>
</svg>
