<?xml version="1.0" encoding="UTF-8"?>
<svg width="24" height="24" fill="none" version="1.1" viewBox="0 0 24 24" xmlns="http://www.w3.org/2000/svg">
  <style type="text/css">
    .led {
    animation: blink 3s infinite;
    }

    @keyframes blink {
    0%, 19%, 80%, 100% {
    fill: rgba(255,255,255,0);
    }
    20%, 29%, 40%, 49%, 60%, 69%, 80%, 89% {
    fill: #CC7800
    }
    30%, 39%, 50%, 59%, 70%, 79%, 90%, 99% {
    fill: #00CC00
    }
    }
  </style>
  <g fill="#000">
    <path d="m7.8561 11.171c-0.45743 0-0.82785 0.3716-0.82785 0.829 0 0.4563 0.37042 0.8278 0.82785 0.8278 0.45861 0 0.82784-0.3715 0.82784-0.8278 0-0.4574-0.36923-0.829-0.82784-0.829z"/>
    <path d="m16.143 11.171c-0.4563 0-0.8291 0.3716-0.8291 0.829 0 0.4563 0.3716 0.8278 0.8291 0.8278 0.4562 0 0.8278-0.3715 0.8278-0.8278 0-0.4574-0.3704-0.829-0.8278-0.829z"/>
    <path d="m12 3.6463c-4.6072 0-8.3549 3.7476-8.3549 8.3537s3.7488 8.3537 8.3549 8.3537 8.3525-3.7476 8.3525-8.3537-3.7464-8.3537-8.3525-8.3537zm0 15.884c-4.1533 0-7.5318-3.3784-7.5318-7.5306s3.3784-7.5306 7.5318-7.5306c4.151 0 7.5294 3.3784 7.5294 7.5306s-3.3784 7.5306-7.5294 7.5306z"/>
    <rect x="2.4115" y="2.4115" width="19.177" height="19.177" ry="4.0616" fill="none" stroke="#000" stroke-linejoin="round" stroke-miterlimit="28.35" stroke-width=".823"/>
    <path fill="#CC7800" class="led" d="m17.942 3.4573c-0.4563 0-0.8291 0.3716-0.8291 0.829 0 0.4563 0.3716 0.8278 0.8291 0.8278 0.4562 0 0.8278-0.3715 0.8278-0.8278 0-0.4574-0.3704-0.829-0.8278-0.829z"/>
  </g>
</svg>
